<?xml version="1.0" encoding="UTF-8"?>
<svg xmlns="http://www.w3.org/2000/svg" xmlns:xlink="http://www.w3.org/1999/xlink" width="16" height="16" viewBox="0 0 16 16">
<path fill-rule="nonzero" fill="rgb(0%, 0%, 0%)" fill-opacity="1" stroke-width="1" stroke-linecap="butt" stroke-linejoin="miter" stroke="rgb(0%, 0%, 0%)" stroke-opacity="1" stroke-miterlimit="4" d="M 13.083984 21.386719 L 13.734375 21.767578 Z M 13.628906 20.472656 L 12.984375 20.091797 Z M 10.371094 20.472656 L 9.726562 20.853516 Z M 10.916016 21.386719 L 11.560547 21.005859 Z M 1.248047 10.5 C 1.248047 10.916016 1.587891 11.25 1.998047 11.25 C 2.414062 11.25 2.748047 10.916016 2.748047 10.5 Z M 3.076172 15.626953 C 2.912109 15.246094 2.478516 15.064453 2.091797 15.222656 C 1.710938 15.380859 1.529297 15.820312 1.6875 16.201172 Z M 7.787109 18.990234 L 7.775391 19.740234 Z M 5.085938 18.621094 L 4.798828 19.3125 Z M 21.621094 15.914062 L 22.3125 16.201172 Z M 16.212891 18.990234 L 16.195312 18.240234 Z M 18.914062 18.621094 L 19.201172 19.3125 Z M 19.611328 2.736328 L 19.21875 3.375 Z M 21.263672 4.388672 L 21.902344 3.996094 Z M 4.388672 2.736328 L 3.996094 2.097656 Z M 2.736328 4.388672 L 2.097656 3.996094 Z M 9.404297 19.207031 L 9.779297 18.5625 Z M 13.734375 21.767578 L 14.273438 20.853516 L 12.984375 20.091797 L 12.439453 21.005859 Z M 9.726562 20.853516 L 10.265625 21.767578 L 11.560547 21.005859 L 11.015625 20.091797 Z M 12.439453 21.005859 C 12.246094 21.333984 11.753906 21.333984 11.560547 21.005859 L 10.265625 21.767578 C 11.039062 23.074219 12.960938 23.074219 13.734375 21.767578 Z M 10.5 2.748047 L 13.5 2.748047 L 13.5 1.248047 L 10.5 1.248047 Z M 21.251953 10.5 L 21.251953 11.501953 L 22.751953 11.501953 L 22.751953 10.5 Z M 7.804688 18.240234 C 6.544922 18.222656 5.888672 18.140625 5.373047 17.923828 L 4.798828 19.3125 C 5.607422 19.646484 6.521484 19.716797 7.775391 19.740234 Z M 1.6875 16.201172 C 2.273438 17.607422 3.392578 18.726562 4.798828 19.3125 L 5.373047 17.923828 C 4.330078 17.496094 3.503906 16.669922 3.076172 15.626953 Z M 21.251953 11.501953 C 21.251953 12.673828 21.251953 13.517578 21.205078 14.185547 C 21.158203 14.841797 21.070312 15.275391 20.923828 15.626953 L 22.3125 16.201172 C 22.546875 15.632812 22.652344 15.023438 22.699219 14.285156 C 22.751953 13.558594 22.751953 12.65625 22.751953 11.501953 Z M 16.224609 19.740234 C 17.478516 19.716797 18.392578 19.646484 19.201172 19.3125 L 18.626953 17.923828 C 18.111328 18.140625 17.455078 18.222656 16.195312 18.240234 Z M 20.923828 15.626953 C 20.496094 16.669922 19.669922 17.496094 18.626953 17.923828 L 19.201172 19.3125 C 20.607422 18.726562 21.726562 17.607422 22.3125 16.201172 Z M 13.5 2.748047 C 15.152344 2.748047 16.335938 2.748047 17.261719 2.835938 C 18.175781 2.923828 18.755859 3.09375 19.21875 3.375 L 20.003906 2.097656 C 19.265625 1.646484 18.427734 1.441406 17.402344 1.347656 C 16.388672 1.248047 15.123047 1.248047 13.5 1.248047 Z M 22.751953 10.5 C 22.751953 8.876953 22.751953 7.611328 22.652344 6.597656 C 22.558594 5.572266 22.353516 4.734375 21.902344 3.996094 L 20.625 4.78125 C 20.90625 5.244141 21.076172 5.824219 21.164062 6.738281 C 21.251953 7.664062 21.251953 8.847656 21.251953 10.5 Z M 19.21875 3.375 C 19.792969 3.726562 20.273438 4.207031 20.625 4.78125 L 21.902344 3.996094 C 21.427734 3.222656 20.777344 2.572266 20.003906 2.097656 Z M 10.5 1.248047 C 8.876953 1.248047 7.611328 1.248047 6.597656 1.347656 C 5.572266 1.441406 4.734375 1.646484 3.996094 2.097656 L 4.78125 3.375 C 5.244141 3.09375 5.824219 2.923828 6.738281 2.835938 C 7.664062 2.748047 8.847656 2.748047 10.5 2.748047 Z M 2.748047 10.5 C 2.748047 8.847656 2.748047 7.664062 2.835938 6.738281 C 2.923828 5.824219 3.09375 5.244141 3.375 4.78125 L 2.097656 3.996094 C 1.646484 4.734375 1.441406 5.572266 1.347656 6.597656 C 1.248047 7.611328 1.248047 8.876953 1.248047 10.5 Z M 3.996094 2.097656 C 3.222656 2.572266 2.572266 3.222656 2.097656 3.996094 L 3.375 4.78125 C 3.726562 4.207031 4.207031 3.726562 4.78125 3.375 Z M 11.015625 20.091797 C 10.816406 19.746094 10.634766 19.441406 10.464844 19.207031 C 10.277344 18.955078 10.072266 18.732422 9.779297 18.5625 L 9.023438 19.857422 C 9.070312 19.886719 9.140625 19.933594 9.251953 20.091797 C 9.369141 20.255859 9.509766 20.484375 9.726562 20.853516 Z M 7.775391 19.740234 C 8.214844 19.746094 8.496094 19.751953 8.707031 19.775391 C 8.90625 19.798828 8.982422 19.833984 9.023438 19.857422 L 9.779297 18.5625 C 9.486328 18.392578 9.181641 18.322266 8.871094 18.287109 C 8.572266 18.251953 8.214844 18.246094 7.804688 18.240234 Z M 14.273438 20.853516 C 14.490234 20.484375 14.630859 20.255859 14.748047 20.091797 C 14.859375 19.933594 14.929688 19.886719 14.976562 19.857422 L 14.220703 18.5625 C 13.927734 18.732422 13.722656 18.955078 13.535156 19.207031 C 13.365234 19.441406 13.183594 19.746094 12.984375 20.091797 Z M 16.195312 18.240234 C 15.785156 18.246094 15.427734 18.251953 15.128906 18.287109 C 14.818359 18.322266 14.513672 18.392578 14.220703 18.5625 L 14.976562 19.857422 C 15.017578 19.833984 15.09375 19.798828 15.292969 19.775391 C 15.503906 19.751953 15.785156 19.746094 16.224609 19.740234 Z M 16.195312 18.240234 " transform="matrix(0.666667, 0, 0, 0.666667, 0, 0)"/>
<path fill="none" stroke-width="1.5" stroke-linecap="round" stroke-linejoin="miter" stroke="rgb(0%, 0%, 0%)" stroke-opacity="1" stroke-miterlimit="4" d="M 15.498047 7.828125 L 15.673828 8.003906 C 17.003906 9.333984 17.671875 10.001953 17.671875 10.828125 C 17.671875 11.660156 17.003906 12.328125 15.673828 13.658203 L 15.498047 13.828125 " transform="matrix(0.666667, 0, 0, 0.666667, 0, 0)"/>
<path fill="none" stroke-width="1.5" stroke-linecap="round" stroke-linejoin="miter" stroke="rgb(0%, 0%, 0%)" stroke-opacity="1" stroke-miterlimit="4" d="M 13.294922 6 L 12 10.828125 L 10.705078 15.662109 " transform="matrix(0.666667, 0, 0, 0.666667, 0, 0)"/>
<path fill="none" stroke-width="1.5" stroke-linecap="round" stroke-linejoin="miter" stroke="rgb(0%, 0%, 0%)" stroke-opacity="1" stroke-miterlimit="4" d="M 8.501953 7.828125 L 8.326172 8.003906 C 6.996094 9.333984 6.328125 10.001953 6.328125 10.828125 C 6.328125 11.660156 6.996094 12.328125 8.326172 13.658203 L 8.501953 13.828125 " transform="matrix(0.666667, 0, 0, 0.666667, 0, 0)"/>
</svg>
